# xmcd CD database file
#
# Track frame offsets:
#	150
#	27872
#	57207
#	74111
#	100370
#	122629
#	145711
#	181563
#	194636
#	221788
#
# Disc length: 3317 seconds
#
# Revision: 0
# Processed by: cddbd v1.4PL0 Copyright (c) Steve Scherf et al.
# Submitted via: CDex 1.40Release
#
DISCID=970cf30a
DTITLE=Tom Larsen - Get a Life!
DYEAR=1998
DGENRE=Blues
TTITLE0=Girlfriend
TTITLE1=He knows
TTITLE2=Take a Number
TTITLE3=Bodacious
TTITLE4=Get A Life!
TTITLE5=Hawaiian Stomp
TTITLE6=Dis
TTITLE7=Elbow Room
TTITLE8=I'll Be Waiting
TTITLE9=Bad MuhFuh
EXTD=YEAR: 1998 ID3G: 0
EXTT0=
EXTT1=
EXTT2=
EXTT3=
EXTT4=
EXTT5=
EXTT6=
EXTT7=
EXTT8=
EXTT9=
PLAYORDER=
